<mxfile host="Electron" modified="2023-11-24T04:28:14.138Z" agent="Mozilla/5.0 (Windows NT 10.0; Win64; x64) AppleWebKit/537.36 (KHTML, like Gecko) draw.io/21.2.1 Chrome/112.0.5615.87 Electron/24.1.2 Safari/537.36" etag="-rBqRufhDWwWeBbyzUJN" version="21.2.1" type="device">
  <diagram name="第 1 页" id="p564dUlnIFcZEKCv4rtF">
    <mxGraphModel dx="1418" dy="820" grid="1" gridSize="10" guides="1" tooltips="1" connect="1" arrows="1" fold="1" page="1" pageScale="1" pageWidth="827" pageHeight="1169" math="0" shadow="0">
      <root>
        <mxCell id="0" />
        <mxCell id="1" parent="0" />
        <mxCell id="FCBoML9SgALzvWIjxrZp-1" value="" style="shape=cylinder3;whiteSpace=wrap;html=1;boundedLbl=1;backgroundOutline=1;size=15;fillColor=none;strokeColor=#000000;" vertex="1" parent="1">
          <mxGeometry x="38" y="250" width="170" height="200" as="geometry" />
        </mxCell>
        <mxCell id="FCBoML9SgALzvWIjxrZp-2" value="权限" style="text;html=1;strokeColor=none;fillColor=none;align=center;verticalAlign=middle;whiteSpace=wrap;rounded=0;fontSize=20;" vertex="1" parent="1">
          <mxGeometry x="93" y="250" width="60" height="30" as="geometry" />
        </mxCell>
        <mxCell id="FCBoML9SgALzvWIjxrZp-3" value="允许在数据库对象上执行的操作" style="text;html=1;strokeColor=none;fillColor=none;align=left;verticalAlign=middle;whiteSpace=wrap;rounded=0;fontSize=18;" vertex="1" parent="1">
          <mxGeometry x="43" y="317.5" width="167" height="65" as="geometry" />
        </mxCell>
        <mxCell id="FCBoML9SgALzvWIjxrZp-4" value="" style="shape=cylinder3;whiteSpace=wrap;html=1;boundedLbl=1;backgroundOutline=1;size=15;fillColor=none;strokeColor=#000000;" vertex="1" parent="1">
          <mxGeometry x="328" y="250" width="170" height="200" as="geometry" />
        </mxCell>
        <mxCell id="FCBoML9SgALzvWIjxrZp-6" value="封装了一系列权限" style="text;html=1;strokeColor=none;fillColor=none;align=center;verticalAlign=middle;whiteSpace=wrap;rounded=0;fontSize=18;" vertex="1" parent="1">
          <mxGeometry x="333" y="317.5" width="160" height="65" as="geometry" />
        </mxCell>
        <mxCell id="FCBoML9SgALzvWIjxrZp-7" value="角色" style="text;html=1;strokeColor=none;fillColor=none;align=center;verticalAlign=middle;whiteSpace=wrap;rounded=0;fontSize=20;" vertex="1" parent="1">
          <mxGeometry x="383" y="250" width="60" height="30" as="geometry" />
        </mxCell>
        <mxCell id="FCBoML9SgALzvWIjxrZp-8" value="" style="endArrow=classic;html=1;rounded=0;" edge="1" parent="1">
          <mxGeometry width="50" height="50" relative="1" as="geometry">
            <mxPoint x="208" y="320" as="sourcePoint" />
            <mxPoint x="328" y="320" as="targetPoint" />
          </mxGeometry>
        </mxCell>
        <mxCell id="FCBoML9SgALzvWIjxrZp-9" value="" style="endArrow=none;html=1;rounded=0;endFill=0;startArrow=classic;startFill=1;" edge="1" parent="1">
          <mxGeometry width="50" height="50" relative="1" as="geometry">
            <mxPoint x="208" y="392" as="sourcePoint" />
            <mxPoint x="328" y="392" as="targetPoint" />
          </mxGeometry>
        </mxCell>
        <mxCell id="FCBoML9SgALzvWIjxrZp-10" value="授权" style="text;html=1;strokeColor=none;fillColor=none;align=center;verticalAlign=middle;whiteSpace=wrap;rounded=0;fontSize=15;" vertex="1" parent="1">
          <mxGeometry x="238" y="289.5" width="60" height="30" as="geometry" />
        </mxCell>
        <mxCell id="FCBoML9SgALzvWIjxrZp-12" value="访问" style="text;html=1;strokeColor=none;fillColor=none;align=center;verticalAlign=middle;whiteSpace=wrap;rounded=0;fontSize=15;" vertex="1" parent="1">
          <mxGeometry x="238" y="362" width="60" height="30" as="geometry" />
        </mxCell>
        <mxCell id="FCBoML9SgALzvWIjxrZp-13" value="" style="shape=cylinder3;whiteSpace=wrap;html=1;boundedLbl=1;backgroundOutline=1;size=15;fillColor=none;strokeColor=#000000;" vertex="1" parent="1">
          <mxGeometry x="618" y="250" width="170" height="200" as="geometry" />
        </mxCell>
        <mxCell id="FCBoML9SgALzvWIjxrZp-14" value="角色的成员" style="text;html=1;strokeColor=none;fillColor=none;align=center;verticalAlign=middle;whiteSpace=wrap;rounded=0;fontSize=18;" vertex="1" parent="1">
          <mxGeometry x="623" y="317.5" width="160" height="65" as="geometry" />
        </mxCell>
        <mxCell id="FCBoML9SgALzvWIjxrZp-15" value="用户" style="text;html=1;strokeColor=none;fillColor=none;align=center;verticalAlign=middle;whiteSpace=wrap;rounded=0;fontSize=20;" vertex="1" parent="1">
          <mxGeometry x="673" y="250" width="60" height="30" as="geometry" />
        </mxCell>
        <mxCell id="FCBoML9SgALzvWIjxrZp-20" value="" style="endArrow=classic;html=1;rounded=0;" edge="1" parent="1">
          <mxGeometry width="50" height="50" relative="1" as="geometry">
            <mxPoint x="498" y="320" as="sourcePoint" />
            <mxPoint x="618" y="320" as="targetPoint" />
          </mxGeometry>
        </mxCell>
        <mxCell id="FCBoML9SgALzvWIjxrZp-21" value="" style="endArrow=none;html=1;rounded=0;endFill=0;startArrow=classic;startFill=1;" edge="1" parent="1">
          <mxGeometry width="50" height="50" relative="1" as="geometry">
            <mxPoint x="498" y="392" as="sourcePoint" />
            <mxPoint x="618" y="392" as="targetPoint" />
          </mxGeometry>
        </mxCell>
        <mxCell id="FCBoML9SgALzvWIjxrZp-22" value="授权" style="text;html=1;strokeColor=none;fillColor=none;align=center;verticalAlign=middle;whiteSpace=wrap;rounded=0;fontSize=15;" vertex="1" parent="1">
          <mxGeometry x="528" y="289.5" width="60" height="30" as="geometry" />
        </mxCell>
        <mxCell id="FCBoML9SgALzvWIjxrZp-23" value="访问" style="text;html=1;strokeColor=none;fillColor=none;align=center;verticalAlign=middle;whiteSpace=wrap;rounded=0;fontSize=15;" vertex="1" parent="1">
          <mxGeometry x="528" y="362" width="60" height="30" as="geometry" />
        </mxCell>
      </root>
    </mxGraphModel>
  </diagram>
</mxfile>
